<?xml version="1.0" encoding="utf-8" standalone="yes"?>
<rss version="2.0" xmlns:atom="http://www.w3.org/2005/Atom">
    <channel>
        <title>音视频 on 潘达窝</title>
        <link>https://daidaij.github.io/categories/%E9%9F%B3%E8%A7%86%E9%A2%91/</link>
        <description>Recent content in 音视频 on 潘达窝</description>
        <generator>Hugo -- gohugo.io</generator>
        <language>zh-cn</language>
        <copyright>pandazhangs</copyright>
        <lastBuildDate>Mon, 14 Jul 2025 16:01:50 +0800</lastBuildDate><atom:link href="https://daidaij.github.io/categories/%E9%9F%B3%E8%A7%86%E9%A2%91/index.xml" rel="self" type="application/rss+xml" /><item>
        <title>Videocutter</title>
        <link>https://daidaij.github.io/p/video_cutter/</link>
        <pubDate>Mon, 14 Jul 2025 16:01:50 +0800</pubDate>
        
        <guid>https://daidaij.github.io/p/video_cutter/</guid>
        <description>&lt;img src="https://picsum.photos/seed/ccdc7ec6/800/600" alt="Featured image of post Videocutter" /&gt;&lt;h1 id=&#34;视频流切片服务设计&#34;&gt;视频流切片服务设计
&lt;/h1&gt;&lt;hr&gt;
&lt;blockquote&gt;
&lt;p&gt;这里记录下终端录制视频流切片并上传的流程设计与优化过程：
1. ffmpeg -i rtmp://xxxxx:1935/yyyy/zzzz/vision -c:v h264 -flags +cgop -g 0 -hls_flags program_date_time -hls_list_size 0 -hls_time 10 /app/data/record.m3u8 -y&lt;br&gt;
2. ffmpeg  -hide_banner -f concat -safe 0 -i files.txt -ss 00:00:18 -t 00:00:40 -c copy -hls_list_size 0 ./output.m3u8&lt;/p&gt;
&lt;/blockquote&gt;
&lt;p&gt;这里是实现最原始切片方案的核心逻辑，下面会解释流程，然后列出自己的优化过程。&lt;/p&gt;
&lt;h2 id=&#34;最简原型&#34;&gt;最简原型
&lt;/h2&gt;&lt;h3 id=&#34;录制逻辑&#34;&gt;录制逻辑
&lt;/h3&gt;&lt;blockquote&gt;
&lt;p&gt;ffmpeg -i rtmp://xxxxx:1935/yyyy/zzzz/vision -c:v h264 -flags +cgop -g 0 -hls_flags program_date_time -hls_list_size 0 -hls_time 10 /app/data/record.m3u8 -y&lt;/p&gt;
&lt;/blockquote&gt;
&lt;p&gt;这里从&lt;code&gt;rtmp://xxxxx:1935/yyyy/zzzz/vision&lt;/code&gt; 视频流获取 然后添加：&lt;/p&gt;
&lt;ul&gt;
&lt;li&gt;&lt;code&gt;-hls_flags program_date_time&lt;/code&gt; 使用&lt;code&gt;#EXT-X-PROGRAM-DATE-TIME&lt;/code&gt;时间扩展 ,在m3u8 文件中记录每个切片的开始时间，重要&lt;/li&gt;
&lt;li&gt;&lt;code&gt;-hls_list_size 0&lt;/code&gt; 配置 m3u8 为记录所有ts 文件&lt;/li&gt;
&lt;li&gt;&lt;code&gt;-c:v h264&lt;/code&gt; 确保格式为h264&lt;/li&gt;
&lt;/ul&gt;
&lt;h3 id=&#34;切片逻辑&#34;&gt;切片逻辑
&lt;/h3&gt;&lt;p&gt;切片最重要的是解析m3u8 文件，判断请求的时间是否在文件记录的范围内，是的话将其加入到concat 文件中，然后更新ss 也就是切片开始时间，最后执行下述切片指令;
&lt;code&gt;ffmpeg  -hide_banner -f concat -safe 0 -i files.txt -ss 00:00:18 -t 00:00:40 -c copy -hls_list_size 0 ./output.m3u8 &lt;/code&gt;&lt;/p&gt;
&lt;ul&gt;
&lt;li&gt;&lt;code&gt;-i files.txt&lt;/code&gt; 输入concat 文件，这里是切片的核心逻辑&lt;/li&gt;
&lt;li&gt;&lt;code&gt;-ss 00:00:18 -t 00:00:40 &lt;/code&gt; 切片起始时间和持续时间&lt;/li&gt;
&lt;li&gt;&lt;code&gt;-c copy&lt;/code&gt; 不做编码，直接复制&lt;/li&gt;
&lt;li&gt;&lt;code&gt;-hls_list_size 0&lt;/code&gt; 配置 m3u8 为记录所有ts 文件&lt;/li&gt;
&lt;/ul&gt;
&lt;h3 id=&#34;上传逻辑&#34;&gt;上传逻辑
&lt;/h3&gt;&lt;ul&gt;
&lt;li&gt;使用tar 对目标目录下所有非tar 后缀文件进行归档；&lt;/li&gt;
&lt;li&gt;创建分片上传请求，拿到上传id&lt;/li&gt;
&lt;li&gt;使用上传id 去分片上传大文件，设置有效时间&lt;/li&gt;
&lt;li&gt;确认上传成功后主动清理 目标目录&lt;/li&gt;
&lt;/ul&gt;
&lt;h2 id=&#34;优化&#34;&gt;优化
&lt;/h2&gt;&lt;p&gt;上述实现流程中存在以下问题:&lt;/p&gt;
&lt;ol&gt;
&lt;li&gt;切片太慢，多个视角有放大效应&lt;/li&gt;
&lt;li&gt;录制太占用资源，观察到最极端场景 113% cpu 占用 &lt;code&gt;top&lt;/code&gt;&lt;/li&gt;
&lt;/ol&gt;
&lt;h3 id=&#34;录制逻辑优化&#34;&gt;录制逻辑优化
&lt;/h3&gt;&lt;p&gt;首先在测试需要录制的视频流格式，获得以下信息：&lt;/p&gt;
&lt;blockquote&gt;
&lt;p&gt;Metadata:&lt;br&gt;
|RtmpSampleAccess: true&lt;br&gt;
fileSize        : 0&lt;br&gt;
title           : Streamed by ZLMediaKit(git hash:f3026f5/2025-01-12T10:16:45+08:00,branch:master,build time:2025-01-12T02:24:04)&lt;br&gt;
Duration: 00:00:00.00, start: 2196.413000, bitrate: N/A&lt;br&gt;
Stream #0:0: Data: none&lt;br&gt;
Stream #0:1: Video: h264 (Constrained Baseline), yuv420p(progressive), 768x432, 10 fps, 10 tbr, 1k tbn&lt;br&gt;
Stream #0:2: Audio: aac (LC), 8000 Hz, mono, fltp&lt;/p&gt;
&lt;/blockquote&gt;
&lt;p&gt;可以看到视频编码格式是 H264 ，和切片的编码相同，使用 &lt;code&gt;-c copy&lt;/code&gt; 直接复制即可。
&lt;img src=&#34;https://daidaij.github.io/asset/aftercopy.png&#34;
	
	
	
	loading=&#34;lazy&#34;
	
		alt=&#34;修改前&#34;
	
	
&gt;&lt;br&gt;
上下分别是修改前后的资源占用情况 TOP
&lt;img src=&#34;https://daidaij.github.io/asset/beforecopy.png&#34;
	
	
	
	loading=&#34;lazy&#34;
	
		alt=&#34;修改后&#34;
	
	
&gt;&lt;br&gt;
最低也节省了&lt;strong&gt;40%*4&lt;/strong&gt; 的cpu 资源
这里还可以利用&lt;code&gt;hls_warp&lt;/code&gt; 来实现滚动录制，但是得需要手动拷贝到目标目录然后重建m3u8,长期录制需要去做这个，另外这里的优化为后面的切片逻辑让出了余裕。&lt;/p&gt;
&lt;h3 id=&#34;切片逻辑优化&#34;&gt;切片逻辑优化
&lt;/h3&gt;&lt;p&gt;切片主要是有以下几个问题：&lt;/p&gt;
&lt;ol&gt;
&lt;li&gt;会随着 -ss 开始切片的值，导致切片耗时增长&lt;/li&gt;
&lt;li&gt;多个视角使用串行一次完成录制&lt;/li&gt;
&lt;/ol&gt;
&lt;p&gt;针对&lt;strong&gt;问题1&lt;/strong&gt;，可以检索到ffmpeg 命令行文档中记录&lt;/p&gt;
&lt;blockquote&gt;
&lt;p&gt;-ss position (input/output)&lt;br&gt;
When used as an input option (before -i), seeks in this input file to position. Note that in most formats it is not possible to seek exactly, so ffmpeg will seek to the closest seek point before position.
当使用&lt;code&gt;-ss&lt;/code&gt; 时，会先seek 到指定位置，（如果可能的话），然后开始解码&lt;/p&gt;
&lt;/blockquote&gt;
&lt;p&gt;应对策略，在需要切片的视频只命中了一个M3U8文件，去掉合并逻辑，直接从m3u8 切片，使用-ss 优化 切片耗时
在&lt;code&gt;-i&lt;/code&gt; 之前使用 &lt;code&gt;-ss&lt;/code&gt; 可以利用seek 操作，快速定位，提升切片效率，测试后观察切片时间平均减半&lt;/p&gt;
&lt;p&gt;针对&lt;strong&gt;问题2&lt;/strong&gt;，决定使用多协程并发处理：&lt;/p&gt;
&lt;ol&gt;
&lt;li&gt;使用视角+uuid 方式分离&lt;code&gt;-i&lt;/code&gt;参数给的合并输入文件命名，分离多协程之间的干扰；&lt;/li&gt;
&lt;li&gt;利用&lt;code&gt;sync.WaitGroup&lt;/code&gt; 和 &lt;code&gt;context.Context&lt;/code&gt; 来协同父子进程，在子进程完成多个视角切片后，解除阻塞，继续后面的流程tar-&amp;gt; 分片上传；&lt;/li&gt;
&lt;/ol&gt;
&lt;h2 id=&#34;结果&#34;&gt;结果
&lt;/h2&gt;&lt;ol&gt;
&lt;li&gt;&lt;code&gt; ffmpeg -i rtmp://xxxxx:1935/yyyy/zzzz/vision -c:v copy -flags +cgop -g 0 -hls_flags program_date_time -hls_list_size 0 -hls_time 10 /app/data/record.m3u8 -y&lt;/code&gt;  大幅减少cpu 资源消耗&lt;/li&gt;
&lt;li&gt;&lt;code&gt; ffmpeg -y -hide_banner  -ss 00:00:18 -t 00:00:40  -i xxx.m3u8 -c copy -hls_list_size 0 ./output.m3u8&lt;/code&gt;   seek 快速定位，避免读取开头的切片，并发协同&lt;/li&gt;
&lt;/ol&gt;
</description>
        </item>
        
    </channel>
</rss>
